<svg width="197" height="46" fill="none" xmlns="http://www.w3.org/2000/svg"><path d="M75 5.721v.459l-1.354 1.217-.669-.023-.508.275.138.55v.39l-1.179.576-.206.803v1.514l.925 1.1-.115.46-.972.39v.618l-.698.374-.46.246h-.763l-1.201 1.217.185.183.209 1.377-.787 1.792-.299-.046-.069-.507-.747-.04.514.89.601.71-.254 1.058-.416.676h-.409l.063-.769-.353-.552-.517-.27-.053-.693.162-.872-.252-.162-.58.598.21.436.046.964.37.184.393.735.085.4.051.242-.162.528.602.047.463.202-.116.577.392.252-.022.229-.394.367.693.529v.688l-.532.321.323.573-.23.575-1.828.297v.711l-.53 1.011-.856.186-.131.22-.493.833.024.46-1.108 1.17h-.467l-.37.803-.601.32-.01.193-.151 2.38.439.574.187.802.024.022.461.392v.62l1.109.942.115 1.057.415.77.811 1.503v2.276h-1.711v-.026c-.066-.168-.486-.532-.486-.532l-.645.05v-.781h-.44l-.186-.297v-.436l-.37-.024-.738-.85.093-.482-.37.046-.186-.343.024-.102.162-.702-.117-1.193-.393-.137-1.177-1.286-.996-.07-1.177.688-.464.115-.715-1.054-1.91-.14-.286-.021-.03.02-.594.438-.323-.367-.41.36-1.717.007v.735l-.323.436.878.896-.485.297-1.18-.551-.625.736-1.062-.003-.299-1.033-1.226-.344v.529l-.252.161-1.69-.436h-.715l-2.289 1.01v.46l-.923.618-1.018.207-.37.551-.509.047-.276.642-.346.092.022 1.332c-.064.22-.055.483-.017.737.088.573.34 1.12.34 1.12l-.3.229-1.246-.367c-.805-.155-1.299-.582-1.596-.982a2.525 2.525 0 01-.417-.83c-.091-.62-.23-.849-.23-.849-.762-.436-1.341-2.043-1.341-2.043-.007-.02-.016-.037-.025-.055-.553-1.316-1.34-1.963-1.34-1.963h-.762l-.23-.253-1.295-.046v.896l-.809.618c-1.201-.297-2.052-1.78-2.052-1.78l.042-.812-2.635-3.167-2.452-.184-.205.943-4.37-.529-5.016-3.007v-.804H6.82l-.114-1.246-.048-.542-.602-.229v-.688h-.555l-.085-.496-.468-.124-.88-1.078-1.155-.137-.392-.321.053-.16.002-.001.175-.507-.139-.25-.117-.299.162-.414-.738-1.812-.21-.186v-.274l.324-.344v-.343l-.532-.621.046-1.355-.485-.529.046-.734-.54-.812.054-1.088.163-.694L0 14.625l.44-.597.808-1.308-.091-.642.23-.414.093-1.651 1.48-2.664V6.75l.247-.359.214-.307.464-1.467v-.412l.416-.483-.254-.46.03-.748.385-.373-.368-.051.022-.55-.23-.115v-.365l.23-.618h.324l.209.55.762.3.81.137v.553l-.346.482-.464.16.094.734h.669l.463-.55v-.646l.185-.228-.37-.483.266-.46.104-.25-.21-.208L6.82 0l2.865.877 3.539.94 1.212.267.152.032 6.034.965.13.017 1.474.175 7.486.9 6.51.285 3.052-.204v-.598l.626.366v.757l1.294.46.37-.414.97.321.279.46.947.321.74-.231 1.617.252.394-.618.484-.046.646-.689-.045-.252.185-.343 1.757.068.323.208.67 1.262.67.024.138-.368.58.344.046.599.37.25.017.484.006.184.392.022v.483l.44.32.186.413 1.571-.091 2.367-.048.939.92.738 1.1-.278.476h-1.027l-.519-.59-.162.093.065.496.05.375-.485.872.323 1.332-.74.597-.067 1.17-.763.251v.392l.856.046 1.224-1.4 1.132.068.996-.78.692.023.185-.367-.161-.321-.74.092-.116-.528.738-.71 1.248-.665.974.044-.14-.436 1.547-.642.348-.71.971-.85 3.698-.851.23-.617.57-.16h.006l.14-.276.022-.436.325-.115-.024-.482-.276-.575.382-1.893h2.546l.609 1.893.555.024.065.59 1.01.117zM90.277 20.796v-3.978h15.803v3.977h-5.469V35h-4.865V20.796h-5.469zM112.909 27.33V35h-4.9V16.818h4.723v7.138h.142c.307-.87.819-1.548 1.535-2.033.717-.491 1.578-.737 2.584-.737.965 0 1.802.22 2.512.657a4.42 4.42 0 011.66 1.811c.397.77.592 1.651.586 2.646V35h-4.9v-7.67c.006-.675-.163-1.205-.506-1.59-.338-.384-.82-.577-1.447-.577-.598 0-1.077.193-1.438.577-.362.385-.545.915-.551 1.59zM130.705 35.249c-2.184 0-3.904-.619-5.158-1.856-1.249-1.243-1.874-2.968-1.874-5.176 0-1.408.285-2.64.853-3.693a6.088 6.088 0 012.406-2.459c1.035-.586 2.258-.879 3.666-.879 1.373 0 2.566.281 3.578.843a5.803 5.803 0 012.361 2.415c.563 1.042.844 2.288.844 3.738v1.136h-8.878v.213c0 .657.201 1.202.604 1.634.408.426.976.639 1.704.639.503 0 .941-.104 1.314-.31.379-.214.639-.513.781-.897h4.475c-.231 1.42-.929 2.55-2.095 3.39-1.16.841-2.687 1.262-4.581 1.262zm-2.202-8.63h4.368c-.012-.586-.225-1.062-.639-1.429-.409-.373-.918-.56-1.527-.56-.598 0-1.113.184-1.545.551-.426.367-.645.846-.657 1.438zM155.085 16.818h4.901v12.003c0 1.385-.325 2.554-.976 3.507-.646.947-1.557 1.666-2.735 2.157-1.172.485-2.551.728-4.137.728-1.598 0-2.986-.243-4.164-.728-1.172-.491-2.08-1.21-2.725-2.157-.639-.953-.959-2.122-.959-3.507V16.818h4.936v11.79c0 .675.258 1.222.772 1.642.521.42 1.235.63 2.14.63.923 0 1.645-.21 2.166-.63.521-.42.781-.967.781-1.642v-11.79zM172.133 22.5c-.047-.592-.269-1.053-.666-1.385-.39-.331-.985-.497-1.784-.497-.764 0-1.32.13-1.669.39s-.527.592-.533.995c-.023.432.163.784.559 1.056.403.273 1.033.5 1.891.684l1.492.32c2.006.432 3.453 1.124 4.341 2.077.888.947 1.335 2.113 1.341 3.498-.006 1.793-.663 3.172-1.971 4.137-1.308.959-3.113 1.438-5.416 1.438-1.58 0-2.959-.234-4.137-.701-1.172-.468-2.083-1.187-2.734-2.158-.645-.976-.971-2.225-.977-3.746h4.688c.041.834.328 1.47.861 1.909.539.432 1.281.648 2.228.648.793 0 1.391-.142 1.794-.426.408-.285.615-.651.621-1.101-.006-.415-.21-.758-.612-1.03-.403-.278-1.11-.527-2.122-.746l-1.811-.39c-1.61-.35-2.88-.933-3.809-1.75-.923-.822-1.382-1.944-1.376-3.364-.006-1.154.302-2.163.923-3.027.628-.87 1.495-1.548 2.602-2.033 1.112-.486 2.388-.728 3.826-.728 1.468 0 2.737.245 3.808.736 1.072.492 1.897 1.184 2.477 2.078.586.888.882 1.926.888 3.116h-4.723zM182.997 35h-5.326l6.001-18.182h6.747L196.421 35h-5.327l-1.048-3.48h-6.001L182.997 35zm2.167-7.173h3.764l-1.811-6.002h-.142l-1.811 6.002z" fill="#fff"/></svg>